HIERARCHY
ROOT Hips
{
  OFFSET 5.84602e-005 68.8428 3.50346
  CHANNELS 6 Xposition Yposition Zposition Zrotation Xrotation Yrotation
  JOINT Spine
  {
    OFFSET 0 8.597 -4.6522
    CHANNELS 3 Zrotation Xrotation Yrotation
    JOINT Spine1
    {
      OFFSET 0 7.8454 0.4098
      CHANNELS 3 Zrotation Xrotation Yrotation
      JOINT Spine2
      {
        OFFSET 0 9.7078 -2.1609
        CHANNELS 3 Zrotation Xrotation Yrotation
        JOINT Neck
        {
          OFFSET 0 21.8761 -0.4549
          CHANNELS 3 Zrotation Xrotation Yrotation
          JOINT Head
          {
            OFFSET 0 12.3537 3.3602
            CHANNELS 3 Zrotation Xrotation Yrotation
            End Site
            {
              OFFSET 0.0001 18.9506 0.5657
            }
          }
        }
        JOINT LeftShoulder
        {
          OFFSET 2.2086 21.1115 7.2329
          CHANNELS 3 Zrotation Xrotation Yrotation
          JOINT LeftArm
          {
            OFFSET 13.1193 3.0282 -4.8998
            CHANNELS 3 Zrotation Xrotation Yrotation
            JOINT LeftForeArm
            {
              OFFSET 27.4081 -0.0973053 -0.2375
              CHANNELS 3 Zrotation Xrotation Yrotation
              JOINT LeftHand
              {
                OFFSET 22.8641 0.0662994 -0.1369
                CHANNELS 3 Zrotation Xrotation Yrotation
                JOINT LeftHandIndex1
                {
                  OFFSET 8.8614 0.775009 2.4612
                  CHANNELS 3 Zrotation Xrotation Yrotation
                  JOINT LeftHandIndex2
                  {
                    OFFSET 3.3146 -0.808304 0.5841
                    CHANNELS 3 Zrotation Xrotation Yrotation
                    JOINT LeftHandIndex3
                    {
                      OFFSET 2.2628 -0.552002 0.3989
                      CHANNELS 3 Zrotation Xrotation Yrotation
                      End Site
                      {
                        OFFSET 1.6102 -0.4807 0.2612
                      }
                    }
                  }
                }
                JOINT LeftHandMiddle1
                {
                  OFFSET 8.9937 0.895004 0.2143
                  CHANNELS 3 Zrotation Xrotation Yrotation
                  JOINT LeftHandMiddle2
                  {
                    OFFSET 4.0984 0.0113983 -0.0242
                    CHANNELS 3 Zrotation Xrotation Yrotation
                    JOINT LeftHandMiddle3
                    {
                      OFFSET 2.2716 0.00689697 -0.0138001
                      CHANNELS 3 Zrotation Xrotation Yrotation
                      End Site
                      {
                        OFFSET 2.0404 -0.1441 0.0027
                      }
                    }
                  }
                }
                JOINT LeftHandRing1
                {
                  OFFSET 8.5234 0.597198 -2.0164
                  CHANNELS 3 Zrotation Xrotation Yrotation
                  JOINT LeftHandRing2
                  {
                    OFFSET 3.7188 -0.188293 -0.2328
                    CHANNELS 3 Zrotation Xrotation Yrotation
                    JOINT LeftHandRing3
                    {
                      OFFSET 2.1191 -0.106598 -0.1332
                      CHANNELS 3 Zrotation Xrotation Yrotation
                      End Site
                      {
                        OFFSET 1.8737 -0.2304 -0.0886
                      }
                    }
                  }
                }
                JOINT LeftHandPinky1
                {
                  OFFSET 7.9094 -0.601089 -3.4825
                  CHANNELS 3 Zrotation Xrotation Yrotation
                  JOINT LeftHandPinky2
                  {
                    OFFSET 2.2874 -0.477005 -0.6314
                    CHANNELS 3 Zrotation Xrotation Yrotation
                    JOINT LeftHandPinky3
                    {
                      OFFSET 1.6774 -0.349396 -0.4633
                      CHANNELS 3 Zrotation Xrotation Yrotation
                      End Site
                      {
                        OFFSET 1.4888 -0.4091 -0.3416
                      }
                    }
                  }
                }
                JOINT LeftHandThumb1
                {
                  OFFSET 1.833 -1.3875 1.3896
                  CHANNELS 3 Zrotation Xrotation Yrotation
                  JOINT LeftHandThumb2
                  {
                    OFFSET 3.4129 -1.121 2.5732
                    CHANNELS 3 Zrotation Xrotation Yrotation
                    JOINT LeftHandThumb3
                    {
                      OFFSET 2.2474 -0.804199 1.6192
                      CHANNELS 3 Zrotation Xrotation Yrotation
                      End Site
                      {
                        OFFSET 1.6527 -0.5689 1.1317
                      }
                    }
                  }
                }
              }
            }
          }
        }
        JOINT RightShoulder
        {
          OFFSET -2.2086 21.1115 7.2329
          CHANNELS 3 Zrotation Xrotation Yrotation
          JOINT RightArm
          {
            OFFSET -13.1216 3.0287 -4.9007
            CHANNELS 3 Zrotation Xrotation Yrotation
            JOINT RightForeArm
            {
              OFFSET -27.4081 -0.0973053 -0.2375
              CHANNELS 3 Zrotation Xrotation Yrotation
              JOINT RightHand
              {
                OFFSET -22.8641 0.0664063 -0.1369
                CHANNELS 3 Zrotation Xrotation Yrotation
                JOINT RightHandIndex1
                {
                  OFFSET -8.8614 0.774994 2.4612
                  CHANNELS 3 Zrotation Xrotation Yrotation
                  JOINT RightHandIndex2
                  {
                    OFFSET -3.3146 -0.808304 0.5841
                    CHANNELS 3 Zrotation Xrotation Yrotation
                    JOINT RightHandIndex3
                    {
                      OFFSET -2.2628 -0.552002 0.3989
                      CHANNELS 3 Zrotation Xrotation Yrotation
                      End Site
                      {
                        OFFSET -1.6102 -0.4807 0.2612
                      }
                    }
                  }
                }
                JOINT RightHandMiddle1
                {
                  OFFSET -8.9937 0.894989 0.2143
                  CHANNELS 3 Zrotation Xrotation Yrotation
                  JOINT RightHandMiddle2
                  {
                    OFFSET -4.0984 0.0113983 -0.0242
                    CHANNELS 3 Zrotation Xrotation Yrotation
                    JOINT RightHandMiddle3
                    {
                      OFFSET -2.2716 0.00691223 -0.0138001
                      CHANNELS 3 Zrotation Xrotation Yrotation
                      End Site
                      {
                        OFFSET -2.0404 -0.1441 0.0027
                      }
                    }
                  }
                }
                JOINT RightHandRing1
                {
                  OFFSET -8.5234 0.597198 -2.0164
                  CHANNELS 3 Zrotation Xrotation Yrotation
                  JOINT RightHandRing2
                  {
                    OFFSET -3.7188 -0.188309 -0.2328
                    CHANNELS 3 Zrotation Xrotation Yrotation
                    JOINT RightHandRing3
                    {
                      OFFSET -2.1191 -0.106598 -0.1332
                      CHANNELS 3 Zrotation Xrotation Yrotation
                      End Site
                      {
                        OFFSET -1.8737 -0.2304 -0.0886
                      }
                    }
                  }
                }
                JOINT RightHandPinky1
                {
                  OFFSET -7.9094 -0.601105 -3.4825
                  CHANNELS 3 Zrotation Xrotation Yrotation
                  JOINT RightHandPinky2
                  {
                    OFFSET -2.2874 -0.477005 -0.6314
                    CHANNELS 3 Zrotation Xrotation Yrotation
                    JOINT RightHandPinky3
                    {
                      OFFSET -1.6774 -0.349396 -0.4633
                      CHANNELS 3 Zrotation Xrotation Yrotation
                      End Site
                      {
                        OFFSET -1.4888 -0.4091 -0.3416
                      }
                    }
                  }
                }
                JOINT RightHandThumb1
                {
                  OFFSET -1.833 -1.38751 1.3896
                  CHANNELS 3 Zrotation Xrotation Yrotation
                  JOINT RightHandThumb2
                  {
                    OFFSET -3.41299 -1.12099 2.5732
                    CHANNELS 3 Zrotation Xrotation Yrotation
                    JOINT RightHandThumb3
                    {
                      OFFSET -2.24741 -0.804108 1.6192
                      CHANNELS 3 Zrotation Xrotation Yrotation
                      End Site
                      {
                        OFFSET -1.6527 -0.5689 1.1317
                      }
                    }
                  }
                }
              }
            }
          }
        }
      }
    }
  }
  JOINT RightUpLeg
  {
    OFFSET -9.1966 3.8861 -0.7581
    CHANNELS 3 Zrotation Xrotation Yrotation
    JOINT RightLeg
    {
      OFFSET -0.7359 -41.0265 0
      CHANNELS 3 Zrotation Xrotation Yrotation
      JOINT RightFoot
      {
        OFFSET 0 -40.2855 0
        CHANNELS 3 Zrotation Xrotation Yrotation
        JOINT RightToeBase
        {
          OFFSET 0 -5.6122 11.7359
          CHANNELS 3 Zrotation Xrotation Yrotation
          End Site
          {
            OFFSET 0 0 7.8731
          }
        }
      }
    }
  }
  JOINT LeftUpLeg
  {
    OFFSET 9.1965 3.8864 -0.7581
    CHANNELS 3 Zrotation Xrotation Yrotation
    JOINT LeftLeg
    {
      OFFSET 0.7359 -41.0268 0
      CHANNELS 3 Zrotation Xrotation Yrotation
      JOINT LeftFoot
      {
        OFFSET 0 -40.2855 0
        CHANNELS 3 Zrotation Xrotation Yrotation
        JOINT LeftToeBase
        {
          OFFSET 0 -5.6122 11.7359
          CHANNELS 3 Zrotation Xrotation Yrotation
          End Site
          {
            OFFSET 0 0 7.8731
          }
        }
      }
    }
  }
}
MOTION
Frames:	6
Frame Time:	0.0333333
5.84602e-005 68.8428 3.50346 0 0 -0 0 0 -0 0 0 -0 0 0 -0 0 0 -0 0 0 -0 0 0 -0 0 0 -0 0 0 -0 0 0 -0 0 0 -0 0 0 -0 0 0 -0 0 0 -0 -0.0146107 -8.87603e-005 -2.63497e-007 2.99804e-018 -2.42657e-020 -1.42182e-022 0 0 -0 -0.0187562 -0.001176 5.858e-005 5.06224e-018 3.88251e-019 1.21329e-020 0 0 -0 -0.012269 -0.00324817 0.000675346 -1.74678e-018 3.88251e-019 -0 0 0 -0 0 0 -0 0 0 -0 0 0 -0 0 0 -0 0 0 -0 0 0 -0 0 0 -0 0 0 -0 0 0 -0 0 0 -0 0.0149955 -9.10982e-005 2.64101e-007 -9.69331e-018 1.21329e-020 -4.7394e-023 0 0 -0 0.0189956 -0.00119102 -5.96516e-005 -5.41541e-019 0 2.42657e-020 0 0 -0 0.0122698 -0.00324857 -0.000673756 -2.00796e-019 0 -1.94126e-019 0 0 -0 0 0 -0 0 0 -0 3.39842 1.33031 -0.0637918 -5.65207e-008 0.834868 -0.000436188 -3.39935 -2.16518 -0.0642563 -8.89002e-024 -1.18485e-023 -1.48106e-024 -3.39844 1.35642 0.0640283 -3.18788e-007 0.782166 -0.000588827 3.39931 -2.13858 0.0634662 1.1399e-023 0 -0 
39.7648 -6.36323 50.4692 0 70.9971 -0 -0.256891 3.1546 -0.171296 -0.505471 6.30994 -0.32915 -0.505471 6.30992 -0.32915 -1.61857e-006 -24.0063 -3.91644e-007 -0.0600575 -22.3427 -0.0243369 -5.15815 -0.268712 1.80657 -64.5392 -33.8343 -58.2409 46.9766 -33.0979 -64.5427 -6.99994 7.19966 -0.00316305 4.5529e-008 2.78254e-008 -4.33863e-010 -1.98785e-016 3.97569e-016 3.18055e-015 -1.98785e-016 2.98177e-016 3.18055e-015 4.5529e-008 2.78254e-008 -4.33863e-010 -0.0145951 -8.86368e-005 -2.73245e-006 -7.1876e-009 2.03006e-008 1.29558e-006 4.5529e-008 2.78254e-008 -4.33863e-010 -0.0187473 -0.00117541 5.85672e-005 -3.97569e-016 -2.98177e-016 -6.36111e-015 4.5529e-008 2.78254e-008 -4.33863e-010 -0.0122471 -0.00324304 0.000666698 1.98785e-016 2.98177e-016 -3.18055e-015 4.5529e-008 2.78254e-008 -4.33863e-010 -1.98785e-016 3.97569e-016 3.18055e-015 -1.98785e-016 2.98177e-016 3.18055e-015 9.01819 -0.30524 -3.13526 65.9604 -29.1426 49.3201 -49.3951 -37.0112 63.7896 6.99664 7.19945 -0.000137062 9.45457e-008 -4.92881e-008 4.5588e-009 9.45457e-008 -4.92881e-008 4.55881e-009 4.72729e-008 -2.46441e-008 2.2794e-009 9.45457e-008 -4.92881e-008 4.5588e-009 0.0149987 -9.19697e-005 -6.26011e-006 4.72729e-008 -2.46438e-008 2.28257e-009 9.45457e-008 -4.92881e-008 4.5588e-009 0.0190037 -0.00119137 -5.88442e-005 4.7273e-008 -2.46437e-008 2.28301e-009 9.45457e-008 -4.92881e-008 4.5588e-009 0.0122337 -0.00323877 -0.000669232 4.72731e-008 -2.46436e-008 2.2807e-009 9.45457e-008 -4.92881e-008 4.5588e-009 9.45457e-008 -4.92881e-008 4.55881e-009 4.72729e-008 -2.46441e-008 2.2794e-009 -35.9912 11.1053 -47.5437 8.67708 23.3326 -20.7174 -9.82943 47.3266 19.9614 3.07817e-006 5.02585e-006 -2.24645e-007 29.4486 13.9787 47.523 -7.12069 16.7073 20.1978 8.50635 46.6562 -17.9037 2.47066e-006 9.45623e-007 3.57982e-006 
39.7648 -6.31921 50.4861 0 71.4413 -0 -0.259476 3.01728 -0.17397 -0.510827 6.03531 -0.33493 -0.510827 6.03526 -0.33493 6.52635e-006 -24.395 3.14003e-006 -0.0598521 -21.9541 -0.0238808 -4.18647 0.15128 1.33282 -64.1075 -34.526 -56.0215 47.107 -33.3356 -64.9705 -6.33641 5.66046 0.643736 -0 -5.96354e-016 -0 -0 -3.97569e-016 -0 -9.93923e-017 -2.98177e-016 -0 -0 -5.96354e-016 -0 -0.0146029 -8.87204e-005 5.95189e-006 -2.62953e-008 2.5758e-008 2.279e-006 -0 -5.96354e-016 -0 -0.0187331 -0.00117451 5.85827e-005 -9.93923e-017 1.98785e-016 3.18055e-015 -0 -5.96354e-016 -0 -0.0122788 -0.0032513 0.00068255 -2.60419e-008 2.55453e-008 2.27906e-006 -0 -5.96354e-016 -0 -0 -3.97569e-016 -0 -9.93923e-017 -2.98177e-016 -0 8.59756 -0.399494 -3.37824 65.9842 -29.0908 48.3523 -49.4381 -37.0836 64.128 6.9657 6.51684 -0.149967 1.19271e-015 -1.98785e-015 1.59028e-014 4.72628e-008 -2.46632e-008 2.28122e-009 1.98785e-015 -3.97569e-016 -1.27222e-014 1.19271e-015 -1.98785e-015 1.59028e-014 0.0149941 -9.16207e-005 2.38687e-006 1.59028e-015 -7.95139e-016 -9.54166e-015 1.19271e-015 -1.98785e-015 1.59028e-014 0.0189831 -0.00119067 -6.89822e-005 -3.97569e-016 7.95139e-016 1.59028e-014 1.19271e-015 -1.98785e-015 1.59028e-014 0.0122998 -0.00325576 -0.000681382 -8.82781e-032 7.95139e-016 6.36111e-015 1.19271e-015 -1.98785e-015 1.59028e-014 4.72628e-008 -2.46632e-008 2.28122e-009 1.98785e-015 -3.97569e-016 -1.27222e-014 -35.812 10.7404 -47.5762 8.60263 23.0946 -20.7031 -9.57106 47.48 19.646 -1.67023e-006 1.17543e-005 4.96793e-006 29.2402 13.6408 47.5275 -7.06568 16.3658 20.2054 8.33794 46.8589 -17.6288 9.58976e-006 1.03689e-005 -1.9807e-006 
39.7648 -6.27485 50.5034 0 71.8857 -0 -0.262069 2.8797 -0.17662 -0.516215 5.76017 -0.340677 -0.516215 5.76017 -0.340677 -1.26933e-006 -24.7838 -5.74977e-007 -0.0596507 -21.5654 -0.0234263 -3.20969 0.56392 0.851194 -63.6372 -35.2065 -53.766 47.2357 -33.5743 -65.399 -5.65418 4.12257 1.30976 3.89412e-008 -4.0982e-009 -1.25659e-006 3.42007e-008 2.07809e-008 -3.36808e-010 2.94602e-008 4.56599e-008 1.25591e-006 3.89412e-008 -4.0982e-009 -1.25659e-006 -0.0146092 -8.87416e-005 -1.11115e-005 3.42007e-008 2.07809e-008 -3.34181e-010 3.89412e-008 -4.0982e-009 -1.25659e-006 -0.0187538 -0.00117569 6.56168e-005 3.42007e-008 2.07809e-008 -3.33745e-010 3.89412e-008 -4.0982e-009 -1.25659e-006 -0.0122925 -0.00325381 0.000676944 3.42008e-008 2.07807e-008 -3.35555e-010 3.89412e-008 -4.0982e-009 -1.25659e-006 3.42007e-008 2.07809e-008 -3.36808e-010 2.94602e-008 4.56599e-008 1.25591e-006 8.1764 -0.491897 -3.62201 66.009 -29.0392 47.3838 -49.4806 -37.1562 64.4667 6.93299 5.83391 -0.300062 -1.89016e-007 9.87205e-008 -9.13145e-009 -1.41762e-007 7.40404e-008 -6.84859e-009 -1.89016e-007 9.87205e-008 -9.13148e-009 -1.89016e-007 9.87205e-008 -9.13145e-009 0.0150008 -9.04591e-005 -3.24559e-006 -1.89016e-007 9.87193e-008 -9.14424e-009 -1.89016e-007 9.87205e-008 -9.13145e-009 0.0190054 -0.00119124 -5.57077e-005 -1.89016e-007 9.87189e-008 -9.14589e-009 -1.89016e-007 9.87205e-008 -9.13145e-009 0.0122807 -0.00325001 -0.00067904 -1.89017e-007 9.87185e-008 -9.13669e-009 -1.89016e-007 9.87205e-008 -9.13145e-009 -1.41762e-007 7.40404e-008 -6.84859e-009 -1.89016e-007 9.87205e-008 -9.13148e-009 -35.6332 10.3757 -47.6073 8.52894 22.856 -20.6894 -9.31113 47.6328 19.3287 -1.4731e-005 6.38176e-006 -2.06732e-006 29.0322 13.3028 47.5306 -7.01064 16.0241 20.2133 8.16749 47.0613 -17.3519 -2.48481e-015 -9.54166e-015 -7.45443e-015 
39.7648 -6.23014 50.521 0 72.3301 -0 -0.264672 2.74197 -0.179248 -0.521641 5.48473 -0.346392 -0.521641 5.48473 -0.346392 -1.85158e-005 -25.1726 -3.34512e-006 -0.0594524 -21.1766 -0.022976 -2.22796 0.968816 0.361846 -63.1281 -35.874 -51.4751 47.3626 -33.8138 -65.8282 -4.9526 2.58723 1.99553 -1.14077e-008 -6.91474e-009 1.13454e-010 -2.28153e-008 -1.38295e-008 2.26872e-010 -1.14077e-008 -6.91474e-009 1.13438e-010 -1.14077e-008 -6.91474e-009 1.13454e-010 -0.0146205 -8.88404e-005 3.47076e-007 -1.14077e-008 -6.91475e-009 1.12566e-010 -1.14077e-008 -6.91474e-009 1.13454e-010 -0.0187586 -0.00117586 6.8932e-005 -1.71115e-008 -1.03721e-008 1.68636e-010 -1.14077e-008 -6.91474e-009 1.13454e-010 -0.012276 -0.00325109 0.00066998 -1.14077e-008 -6.91468e-009 1.13018e-010 -1.14077e-008 -6.91474e-009 1.13454e-010 -2.28153e-008 -1.38295e-008 2.26872e-010 -1.14077e-008 -6.91474e-009 1.13438e-010 7.75473 -0.582581 -3.8665 66.0348 -28.988 46.4147 -49.5227 -37.2291 64.8058 6.89851 5.1507 -0.45048 -9.79227e-008 -1.75677e-007 2.73304e-007 -5.23892e-008 -2.26988e-007 -2.73823e-007 -9.79227e-008 -1.75677e-007 2.73304e-007 -9.79227e-008 -1.75677e-007 2.73304e-007 0.0149907 -9.13276e-005 -8.1985e-007 4.72463e-008 -2.46945e-008 2.28756e-009 -9.79227e-008 -1.75677e-007 2.73304e-007 0.0189937 -0.00119094 -5.95053e-005 4.72463e-008 -2.46944e-008 2.28798e-009 -9.79227e-008 -1.75677e-007 2.73304e-007 0.0122404 -0.00323983 -0.000674608 4.72465e-008 -2.46943e-008 2.28568e-009 -9.79227e-008 -1.75677e-007 2.73304e-007 -5.23892e-008 -2.26988e-007 -2.73823e-007 -9.79227e-008 -1.75677e-007 2.73304e-007 -35.4553 10.011 -47.6371 8.45617 22.6177 -20.6763 -9.04939 47.7844 19.0094 -3.65753e-006 1.14747e-006 -2.29608e-006 28.8244 12.9647 47.5324 -6.9555 15.6822 20.2214 7.99474 47.2632 -17.0729 2.49651e-006 5.06859e-006 -6.84554e-006 
39.7648 -6.18509 50.539 0 72.7747 -0 -0.267282 2.60408 -0.181852 -0.527098 5.20894 -0.352073 -0.527098 5.20894 -0.352073 -2.71876e-005 -25.5615 -1.02526e-005 -0.0592584 -20.7878 -0.022527 -1.24145 1.36579 -0.135066 -62.5799 -36.5266 -49.1491 47.4878 -34.0541 -66.2581 -4.23101 1.05574 2.70171 -5.70698e-009 -3.45216e-009 5.71291e-011 1.71209e-008 1.03565e-008 -1.71416e-010 1.1414e-008 6.90432e-009 -1.14296e-010 -5.70698e-009 -3.45216e-009 5.71291e-011 -0.014617 -8.8911e-005 1.73206e-006 1.42675e-008 8.63041e-009 -1.41764e-010 -5.70698e-009 -3.45216e-009 5.71291e-011 -0.0187625 -0.00117651 6.06919e-005 1.42675e-008 8.63041e-009 -1.4156e-010 -5.70698e-009 -3.45216e-009 5.71291e-011 -0.0122972 -0.00325585 0.000681048 1.42675e-008 8.63033e-009 -1.42327e-010 -5.70698e-009 -3.45216e-009 5.71291e-011 1.71209e-008 1.03565e-008 -1.71416e-010 1.1414e-008 6.90432e-009 -1.14296e-010 7.33258 -0.671454 -4.11173 66.0616 -28.9371 45.4452 -49.5642 -37.3021 65.1451 6.86224 4.46728 -0.601196 -1.97657e-007 -3.77918e-007 -2.77941e-009 3.97569e-016 -7.95139e-016 -3.18055e-015 -1.97657e-007 -3.77918e-007 -2.77942e-009 -1.97657e-007 -3.77918e-007 -2.77941e-009 0.0149907 -9.17576e-005 2.44268e-006 -1.97655e-007 -3.77918e-007 -2.72982e-009 -1.97657e-007 -3.77918e-007 -2.77941e-009 0.0189966 -0.00119059 -6.21397e-005 -1.97654e-007 -3.77918e-007 -2.71474e-009 -1.97657e-007 -3.77918e-007 -2.77941e-009 0.0122827 -0.0032521 -0.000675576 -1.97653e-007 -3.7792e-007 -2.73339e-009 -1.97657e-007 -3.77918e-007 -2.77941e-009 3.97569e-016 -7.95139e-016 -3.18055e-015 -1.97657e-007 -3.77918e-007 -2.77942e-009 -35.278 9.64645 -47.6655 8.38435 22.3791 -20.6639 -8.78607 47.9352 18.6883 1.60551e-006 -1.18705e-007 -1.9289e-006 28.6171 12.6265 47.5329 -6.90037 15.3404 20.2298 7.81976 47.4646 -16.7918 -1.26386e-006 1.59468e-006 -2.62048e-006 
